<mxfile host="65bd71144e">
    <diagram id="AlxRgA1CSR7Tv6AwJjsP" name="Page-1">
        <mxGraphModel dx="2840" dy="1278" grid="1" gridSize="10" guides="1" tooltips="1" connect="1" arrows="1" fold="1" page="1" pageScale="1" pageWidth="1920" pageHeight="1200" math="0" shadow="0">
            <root>
                <mxCell id="0"/>
                <mxCell id="1" parent="0"/>
                <mxCell id="2" value="" style="whiteSpace=wrap;html=1;aspect=fixed;" vertex="1" parent="1">
                    <mxGeometry x="460" y="120" width="990" height="990" as="geometry"/>
                </mxCell>
                <mxCell id="3" value="" style="rounded=1;whiteSpace=wrap;html=1;fillColor=#9999FF;" vertex="1" parent="1">
                    <mxGeometry x="460" y="120" width="990" height="60" as="geometry"/>
                </mxCell>
                <mxCell id="4" value="&lt;font style=&quot;font-size: 24px;&quot;&gt;navbar&lt;br&gt;&lt;/font&gt;" style="text;html=1;strokeColor=none;fillColor=none;align=center;verticalAlign=middle;whiteSpace=wrap;rounded=0;" vertex="1" parent="1">
                    <mxGeometry x="870" y="135" width="60" height="30" as="geometry"/>
                </mxCell>
                <mxCell id="5" value="" style="shape=image;html=1;verticalLabelPosition=bottom;verticalAlign=top;imageAspect=1;aspect=fixed;image=img/clipart/Gear_128x128.png;fontSize=24;fillColor=#9999FF;" vertex="1" parent="1">
                    <mxGeometry x="520" y="230" width="132" height="154.85" as="geometry"/>
                </mxCell>
                <mxCell id="6" value="about us" style="text;strokeColor=none;fillColor=none;html=1;fontSize=24;fontStyle=1;verticalAlign=middle;align=center;" vertex="1" parent="1">
                    <mxGeometry x="1090" y="200" width="100" height="40" as="geometry"/>
                </mxCell>
                <mxCell id="7" value="lorem&lt;span style=&quot;&quot;&gt;&#9;&lt;/span&gt;loremlorem&lt;span style=&quot;&quot;&gt;&#9;&lt;/span&gt;loremlorem&lt;span style=&quot;&quot;&gt;&#9;&lt;br&gt;&lt;/span&gt;loremlorem&lt;span style=&quot;&quot;&gt;&#9;&lt;/span&gt;loremlorem&lt;span style=&quot;&quot;&gt;&#9;&lt;/span&gt;lorem&lt;br&gt;lorem&lt;span style=&quot;&quot;&gt;&#9;&lt;/span&gt;loremlorem&lt;span style=&quot;&quot;&gt;&#9;&lt;/span&gt;loremlorem&lt;span style=&quot;&quot;&gt;&#9;&lt;br&gt;&lt;/span&gt;loremlorem&lt;span style=&quot;&quot;&gt;&#9;&lt;/span&gt;lorem&lt;span style=&quot;&quot;&gt;lorem&lt;/span&gt;&lt;span style=&quot;&quot;&gt;&#9;&lt;/span&gt;&lt;span style=&quot;&quot;&gt;lorem&lt;/span&gt;" style="text;strokeColor=none;fillColor=none;html=1;fontSize=24;fontStyle=1;verticalAlign=middle;align=center;" vertex="1" parent="1">
                    <mxGeometry x="1060" y="249" width="340" height="200" as="geometry"/>
                </mxCell>
                <mxCell id="9" style="edgeStyle=none;html=1;fontSize=24;" edge="1" parent="1" source="7" target="7">
                    <mxGeometry relative="1" as="geometry"/>
                </mxCell>
                <mxCell id="16" value="" style="edgeStyle=none;html=1;fontSize=24;" edge="1" parent="1" source="12" target="15">
                    <mxGeometry relative="1" as="geometry"/>
                </mxCell>
                <mxCell id="34" value="" style="edgeStyle=none;html=1;fontSize=24;" edge="1" parent="1" source="12" target="33">
                    <mxGeometry relative="1" as="geometry"/>
                </mxCell>
                <mxCell id="12" value="" style="shape=ext;double=1;rounded=1;whiteSpace=wrap;html=1;fontSize=24;fillColor=#000000;" vertex="1" parent="1">
                    <mxGeometry x="500" y="479" width="250" height="221" as="geometry"/>
                </mxCell>
                <mxCell id="18" value="" style="edgeStyle=none;html=1;fontSize=24;" edge="1" parent="1" source="13" target="17">
                    <mxGeometry relative="1" as="geometry"/>
                </mxCell>
                <mxCell id="38" value="" style="edgeStyle=none;html=1;fontSize=24;" edge="1" parent="1" source="13" target="37">
                    <mxGeometry relative="1" as="geometry"/>
                </mxCell>
                <mxCell id="13" value="" style="rounded=1;whiteSpace=wrap;html=1;strokeWidth=2;fillWeight=4;hachureGap=8;hachureAngle=45;fillColor=#1ba1e2;sketch=1;fontSize=24;" vertex="1" parent="1">
                    <mxGeometry x="500" y="479" width="250" height="101" as="geometry"/>
                </mxCell>
                <mxCell id="20" value="" style="edgeStyle=none;html=1;fontSize=24;" edge="1" parent="1" source="14" target="19">
                    <mxGeometry relative="1" as="geometry"/>
                </mxCell>
                <mxCell id="36" value="" style="edgeStyle=none;html=1;fontSize=24;" edge="1" parent="1" source="14" target="35">
                    <mxGeometry relative="1" as="geometry"/>
                </mxCell>
                <mxCell id="14" value="this is an article" style="text;strokeColor=none;fillColor=none;html=1;fontSize=24;fontStyle=1;verticalAlign=middle;align=center;" vertex="1" parent="1">
                    <mxGeometry x="510" y="610" width="230" height="40" as="geometry"/>
                </mxCell>
                <mxCell id="28" value="" style="edgeStyle=none;html=1;fontSize=24;" edge="1" parent="1" source="15" target="27">
                    <mxGeometry relative="1" as="geometry"/>
                </mxCell>
                <mxCell id="15" value="" style="shape=ext;double=1;rounded=1;whiteSpace=wrap;html=1;fontSize=24;fillColor=#000000;" vertex="1" parent="1">
                    <mxGeometry x="830" y="479" width="250" height="221" as="geometry"/>
                </mxCell>
                <mxCell id="30" value="" style="edgeStyle=none;html=1;fontSize=24;" edge="1" parent="1" source="17" target="29">
                    <mxGeometry relative="1" as="geometry"/>
                </mxCell>
                <mxCell id="17" value="" style="rounded=1;whiteSpace=wrap;html=1;strokeWidth=2;fillWeight=4;hachureGap=8;hachureAngle=45;fillColor=#1ba1e2;sketch=1;fontSize=24;" vertex="1" parent="1">
                    <mxGeometry x="830" y="479" width="250" height="101" as="geometry"/>
                </mxCell>
                <mxCell id="32" value="" style="edgeStyle=none;html=1;fontSize=24;" edge="1" parent="1" source="19" target="31">
                    <mxGeometry relative="1" as="geometry"/>
                </mxCell>
                <mxCell id="19" value="this is an article" style="text;strokeColor=none;fillColor=none;html=1;fontSize=24;fontStyle=1;verticalAlign=middle;align=center;" vertex="1" parent="1">
                    <mxGeometry x="840" y="610" width="230" height="40" as="geometry"/>
                </mxCell>
                <mxCell id="27" value="" style="shape=ext;double=1;rounded=1;whiteSpace=wrap;html=1;fontSize=24;fillColor=#000000;" vertex="1" parent="1">
                    <mxGeometry x="1160" y="479" width="250" height="221" as="geometry"/>
                </mxCell>
                <mxCell id="29" value="" style="rounded=1;whiteSpace=wrap;html=1;strokeWidth=2;fillWeight=4;hachureGap=8;hachureAngle=45;fillColor=#1ba1e2;sketch=1;fontSize=24;" vertex="1" parent="1">
                    <mxGeometry x="1160" y="479" width="250" height="101" as="geometry"/>
                </mxCell>
                <mxCell id="31" value="this is an article" style="text;strokeColor=none;fillColor=none;html=1;fontSize=24;fontStyle=1;verticalAlign=middle;align=center;" vertex="1" parent="1">
                    <mxGeometry x="1170" y="610" width="230" height="40" as="geometry"/>
                </mxCell>
                <mxCell id="33" value="" style="shape=ext;double=1;rounded=1;whiteSpace=wrap;html=1;fontSize=24;fillColor=#000000;" vertex="1" parent="1">
                    <mxGeometry x="500" y="780" width="250" height="221" as="geometry"/>
                </mxCell>
                <mxCell id="44" value="" style="edgeStyle=none;html=1;fontSize=24;" edge="1" parent="1" source="35" target="43">
                    <mxGeometry relative="1" as="geometry"/>
                </mxCell>
                <mxCell id="35" value="this is an article" style="text;strokeColor=none;fillColor=none;html=1;fontSize=24;fontStyle=1;verticalAlign=middle;align=center;" vertex="1" parent="1">
                    <mxGeometry x="510" y="910" width="230" height="40" as="geometry"/>
                </mxCell>
                <mxCell id="40" value="" style="edgeStyle=none;html=1;fontSize=24;" edge="1" parent="1" source="37" target="39">
                    <mxGeometry relative="1" as="geometry"/>
                </mxCell>
                <mxCell id="37" value="" style="rounded=1;whiteSpace=wrap;html=1;strokeWidth=2;fillWeight=4;hachureGap=8;hachureAngle=45;fillColor=#1ba1e2;sketch=1;fontSize=24;" vertex="1" parent="1">
                    <mxGeometry x="500" y="790" width="250" height="101" as="geometry"/>
                </mxCell>
                <mxCell id="42" value="" style="edgeStyle=none;html=1;fontSize=24;" edge="1" parent="1" source="39" target="41">
                    <mxGeometry relative="1" as="geometry"/>
                </mxCell>
                <mxCell id="39" value="" style="rounded=1;whiteSpace=wrap;html=1;strokeWidth=2;fillWeight=4;hachureGap=8;hachureAngle=45;fillColor=#1ba1e2;sketch=1;fontSize=24;" vertex="1" parent="1">
                    <mxGeometry x="830" y="790" width="250" height="101" as="geometry"/>
                </mxCell>
                <mxCell id="41" value="" style="rounded=1;whiteSpace=wrap;html=1;strokeWidth=2;fillWeight=4;hachureGap=8;hachureAngle=45;fillColor=#1ba1e2;sketch=1;fontSize=24;" vertex="1" parent="1">
                    <mxGeometry x="1160" y="790" width="250" height="101" as="geometry"/>
                </mxCell>
                <mxCell id="46" value="" style="edgeStyle=none;html=1;fontSize=24;" edge="1" parent="1" source="43" target="45">
                    <mxGeometry relative="1" as="geometry"/>
                </mxCell>
                <mxCell id="43" value="this is an article" style="text;strokeColor=none;fillColor=none;html=1;fontSize=24;fontStyle=1;verticalAlign=middle;align=center;" vertex="1" parent="1">
                    <mxGeometry x="820" y="910" width="230" height="40" as="geometry"/>
                </mxCell>
                <mxCell id="45" value="this is an article" style="text;strokeColor=none;fillColor=none;html=1;fontSize=24;fontStyle=1;verticalAlign=middle;align=center;" vertex="1" parent="1">
                    <mxGeometry x="1130" y="910" width="230" height="40" as="geometry"/>
                </mxCell>
            </root>
        </mxGraphModel>
    </diagram>
</mxfile>